<svg xmlns="http://www.w3.org/2000/svg" width="20" height="21" viewBox="0 0 20 21" fill="none">
<path fill-rule="evenodd" clip-rule="evenodd" d="M14.5 0.75C14.7761 0.75 15 0.973858 15 1.25V2.75H16.75C17.5456 2.75 18.3087 3.07512 18.8713 3.65384C19.4339 4.23255 19.75 5.01746 19.75 5.83589V16.8579C19.75 17.1607 19.7068 17.4612 19.622 17.75H17.8409C17.5516 17.75 17.2741 17.8649 17.0695 18.0695C16.8649 18.2741 16.75 18.5516 16.75 18.8409V20.6542C16.5081 20.7177 16.2588 20.75 16.008 20.75H3.25C2.45435 20.75 1.69129 20.4249 1.12868 19.8462C0.566071 19.2674 0.25 18.4825 0.25 17.6641V5.83589C0.25 5.01746 0.566071 4.23255 1.12868 3.65384C1.69129 3.07512 2.45435 2.75 3.25 2.75H5V1.25C5 0.973858 5.22386 0.75 5.5 0.75C5.77614 0.75 6 0.973858 6 1.25V2.75H14V1.25C14 0.973858 14.2239 0.75 14.5 0.75ZM16.8845 20.6155L16.75 20.75V20.6542C16.7951 20.6424 16.84 20.6295 16.8845 20.6155ZM19.5594 17.9406C19.5474 17.9736 19.5348 18.0066 19.5216 18.0393C19.3708 18.4138 19.1497 18.7541 18.871 19.0407L18.13 19.8458C17.8514 20.1325 17.5206 20.3599 17.1565 20.5151C17.0673 20.5531 16.9765 20.5866 16.8845 20.6155L19.5594 17.9406ZM19.5594 17.9406L19.75 17.75H19.622C19.6032 17.8141 19.5823 17.8777 19.5594 17.9406ZM0.5 7.25C0.5 6.97386 0.723858 6.75 1 6.75H19C19.2761 6.75 19.5 6.97386 19.5 7.25C19.5 7.52614 19.2761 7.75 19 7.75H1C0.723858 7.75 0.5 7.52614 0.5 7.25ZM7 9.75C7.27614 9.75 7.5 9.97386 7.5 10.25V12.75H12.5V10.25C12.5 9.97386 12.7239 9.75 13 9.75C13.2761 9.75 13.5 9.97386 13.5 10.25V12.75H16C16.2761 12.75 16.5 12.9739 16.5 13.25C16.5 13.5261 16.2761 13.75 16 13.75H13.5V16.25C13.5 16.5261 13.2761 16.75 13 16.75C12.7239 16.75 12.5 16.5261 12.5 16.25V13.75H7.5V16.25C7.5 16.5261 7.27614 16.75 7 16.75C6.72386 16.75 6.5 16.5261 6.5 16.25V13.75H4C3.72386 13.75 3.5 13.5261 3.5 13.25C3.5 12.9739 3.72386 12.75 4 12.75H6.5V10.25C6.5 9.97386 6.72386 9.75 7 9.75Z" fill="white"/>
</svg>