<svg xmlns="http://www.w3.org/2000/svg" width="24" height="24" viewBox="0 0 24 24" fill="none">
<path d="M21.8177 6.24597C21.3903 5.94565 20.8651 5.91908 20.4173 6.1732L18.9057 7.02449C18.3468 7.33867 18 7.97396 18 8.68086V15.3179C18 16.0237 18.3468 16.659 18.9057 16.9754L20.4163 17.8256C20.6213 17.9422 20.8406 18 21.0599 18C21.323 18 21.5841 17.9168 21.8177 17.754C22.245 17.4548 22.5 16.9362 22.5 16.3667V7.63321C22.5 7.06491 22.245 6.54513 21.8177 6.24597Z" fill="white"/>
<path d="M12.0989 4.5H5.90116C3.30949 4.5 1.50003 6.16904 1.50003 8.56091V15.4391C1.50003 17.831 3.30949 19.5 5.90116 19.5H12.0989C14.6906 19.5 16.5 17.831 16.5 15.4391V8.56091C16.5 6.16904 14.6906 4.5 12.0989 4.5Z" fill="white"/>
</svg>